<svg xmlns="http://www.w3.org/2000/svg" xmlns:xlink="http://www.w3.org/1999/xlink" xmlns:lucid="lucid" width="700" height="360"><g transform="translate(-240 -80)" lucid:page-tab-id="0_0"><path d="M400 160h80v80h-80zM480 240h80v80h-80z" stroke="#000" stroke-width="2" fill="#c7e8ac"/><path d="M560 240h80v80h-80z" stroke="#000" stroke-width="2" fill="#e5e5e5"/><path d="M640 240h80v80h-80zM720 160h80v80h-80z" stroke="#000" stroke-width="2" fill="#c7e8ac"/><path d="M640 160h80v80h-80zM480 160h80v80h-80z" stroke="#000" stroke-width="2" fill="#e5e5e5"/><path d="M560 160h80v80h-80z" stroke="#000" stroke-width="2" fill="#c7e8ac"/><path d="M720 240h80v80h-80z" stroke="#000" stroke-width="2" fill="#e5e5e5"/><path d="M400 320h80v80h-80z" stroke="#000" stroke-width="2" fill="#c7e8ac"/><path d="M400 240h80v80h-80z" stroke="#000" stroke-width="2" fill="#e5e5e5"/><path d="M560 320h80v80h-80z" stroke="#000" stroke-width="2" fill="#c7e8ac"/><path d="M480 320h80v80h-80zM640 320h80v80h-80z" stroke="#000" stroke-width="2" fill="#e5e5e5"/><path d="M720 320h80v80h-80z" stroke="#000" stroke-width="2" fill="#c7e8ac"/><path d="M280 100h240v60H280z" stroke="#000" stroke-opacity="0" stroke-width="2" fill="#fff" fill-opacity="0"/><use xlink:href="#a" transform="matrix(1,0,0,1,285,105) translate(110 28.6)"/><path d="M360 100h240v60H360z" stroke="#000" stroke-opacity="0" stroke-width="2" fill="#fff" fill-opacity="0"/><use xlink:href="#b" transform="matrix(1,0,0,1,365,105) translate(110 28.6)"/><path d="M440 100h240v60H440z" stroke="#000" stroke-opacity="0" stroke-width="2" fill="#fff" fill-opacity="0"/><use xlink:href="#c" transform="matrix(1,0,0,1,445,105) translate(110 28.6)"/><path d="M520 100h240v60H520z" stroke="#000" stroke-opacity="0" stroke-width="2" fill="#fff" fill-opacity="0"/><use xlink:href="#d" transform="matrix(1,0,0,1,525,105) translate(110 28.6)"/><path d="M600 100h240v60H600z" stroke="#000" stroke-opacity="0" stroke-width="2" fill="#fff" fill-opacity="0"/><use xlink:href="#e" transform="matrix(1,0,0,1,605,105) translate(110 28.6)"/><path d="M680 100h240v60H680z" stroke="#000" stroke-opacity="0" stroke-width="2" fill="#fff" fill-opacity="0"/><use xlink:href="#f" transform="matrix(1,0,0,1,685,105) translate(110 28.6)"/><path d="M260 140h240v40H260z" stroke="#000" stroke-opacity="0" stroke-width="2" fill="#fff" fill-opacity="0"/><use xlink:href="#a" transform="matrix(1,0,0,1,265,145) translate(110 18.6)"/><path d="M260 380h240v40H260z" stroke="#000" stroke-opacity="0" stroke-width="2" fill="#fff" fill-opacity="0"/><use xlink:href="#d" transform="matrix(1,0,0,1,265,385) translate(110 18.6)"/><path d="M260 220h240v40H260z" stroke="#000" stroke-opacity="0" stroke-width="2" fill="#fff" fill-opacity="0"/><use xlink:href="#b" transform="matrix(1,0,0,1,265,225) translate(110 18.6)"/><path d="M260 300h240v40H260z" stroke="#000" stroke-opacity="0" stroke-width="2" fill="#fff" fill-opacity="0"/><use xlink:href="#c" transform="matrix(1,0,0,1,265,305) translate(110 18.6)"/><defs><path d="M27 0v-27h64v-190l-56 39v-29l58-41h29v221h61V0H27" id="g"/><use transform="matrix(0.05,0,0,0.05,0,0)" xlink:href="#g" id="a"/><path d="M101-251c82-7 93 87 43 132L82-64C71-53 59-42 53-27h129V0H18c2-99 128-94 128-182 0-28-16-43-45-43s-46 15-49 41l-32-3c6-41 34-60 81-64" id="h"/><use transform="matrix(0.05,0,0,0.05,0,0)" xlink:href="#h" id="b"/><path d="M126-127c33 6 58 20 58 59 0 88-139 92-164 29-3-8-5-16-6-25l32-3c6 27 21 44 54 44 32 0 52-15 52-46 0-38-36-46-79-43v-28c39 1 72-4 72-42 0-27-17-43-46-43-28 0-47 15-49 41l-32-3c6-42 35-63 81-64 48-1 79 21 79 65 0 36-21 52-52 59" id="i"/><use transform="matrix(0.05,0,0,0.05,0,0)" xlink:href="#i" id="c"/><path d="M155-56V0h-30v-56H8v-25l114-167h33v167h35v25h-35zm-30-156c-27 46-58 90-88 131h88v-131" id="j"/><use transform="matrix(0.05,0,0,0.05,0,0)" xlink:href="#j" id="d"/><path d="M54-142c48-35 137-8 131 61C196 18 31 33 14-55l32-4c7 23 22 37 52 37 35-1 51-22 54-58 4-55-73-65-99-34H22l8-134h141v27H59" id="k"/><use transform="matrix(0.05,0,0,0.05,0,0)" xlink:href="#k" id="e"/><path d="M110-160c48 1 74 30 74 79 0 53-28 85-80 85-65 0-83-55-86-122-5-90 50-162 133-122 14 7 22 21 27 39l-31 6c-5-40-67-38-82-6-9 19-15 44-15 74 11-20 30-34 60-33zm-7 138c34 0 49-23 49-58s-16-56-50-56c-29 0-50 16-49 49 1 36 15 65 50 65" id="l"/><use transform="matrix(0.05,0,0,0.05,0,0)" xlink:href="#l" id="f"/></defs></g></svg>