<svg xmlns="http://www.w3.org/2000/svg" xmlns:xlink="http://www.w3.org/1999/xlink" xmlns:lucid="lucid" width="1500" height="1335.67"><g transform="translate(-80 -4.333333333333336)" lucid:page-tab-id="0_0"><path d="M320 160h960v960H320z" stroke="#000" stroke-width="2" fill="#c7e8ac"/><path d="M320 160h295.38v295.38H320zM652.3 160h295.4v295.38H652.3zM984.62 160H1280v295.38H984.62zM320 492.3h295.38v295.4H320zM652.3 492.3h295.4v295.4H652.3zM984.62 492.3H1280v295.4H984.62zM652.3 824.62h295.4V1120H652.3zM320 824.62h295.38V1120H320zM984.62 824.62H1280V1120H984.62z" stroke="#000" stroke-width="2" fill="#ccc"/><g fill="none"><path d="M320 1206.6V1140h959.88v66.6z"/><path d="M1279.88 1140c0 33.13-26.86 60-60 60H859.93c-33.13 0-60 26.85-60 59.98 0-33.13-26.85-60-59.98-60H380c-33.14 0-60-26.85-60-59.98" stroke="#000" stroke-width="2"/></g><g fill="none"><path d="M612.57 91.5v45.65H321.84V91.5z"/><path d="M321.84 137.15c0-10.03 8.14-18.17 18.17-18.17h109.04c10.03 0 18.17-8.13 18.17-18.17 0 10.05 8.14 18.18 18.18 18.18H594.4c10.04 0 18.17 8.14 18.17 18.17" stroke="#000" stroke-width="2"/></g><path d="M347.7 24.33h240v60h-240z" stroke="#000" stroke-opacity="0" stroke-width="2" fill="#fff" fill-opacity="0"/><use xlink:href="#a" transform="matrix(1,0,0,1,352.69230769230774,29.333333333333343) translate(35.5246913580247 29.444444444444443)"/><use xlink:href="#b" transform="matrix(1,0,0,1,352.69230769230774,29.333333333333343) translate(124.16666666666667 29.444444444444443)"/><use xlink:href="#c" transform="matrix(1,0,0,1,352.69230769230774,29.333333333333343) translate(136.51234567901236 29.444444444444443)"/><path d="M680 1260h240v60H680z" stroke="#000" stroke-opacity="0" stroke-width="2" fill="#fff" fill-opacity="0"/><use xlink:href="#d" transform="matrix(1,0,0,1,685,1265) translate(37.407407407407405 29.444444444444443)"/><use xlink:href="#e" transform="matrix(1,0,0,1,685,1265) translate(89.19753086419753 29.444444444444443)"/><path d="M1380 24.33h150v51.34h-150z" stroke="#000" stroke-opacity="0" stroke-width="2" fill="#fff" fill-opacity="0"/><use xlink:href="#d" transform="matrix(1,0,0,1,1385,29.333333333333336) translate(15.154320987654323 25.444444444444443)"/><use xlink:href="#f" transform="matrix(1,0,0,1,1385,29.333333333333336) translate(66.94444444444446 25.444444444444443)"/><path d="M160 160h140v295.38H160z" fill="none"/><path d="M300 455.38c-10.2 0-18.46-8.26-18.46-18.46V326.15c0-10.2-8.27-18.46-18.46-18.46 10.2 0 18.46-8.27 18.46-18.47V178.46c0-10.2 8.26-18.46 18.46-18.46" stroke="#000" stroke-width="2" fill="none"/><path d="M100 277.7h160v60H100z" stroke="#000" stroke-opacity="0" stroke-width="2" fill="#fff" fill-opacity="0"/><use xlink:href="#g" transform="matrix(1,0,0,1,105,282.6923076923077) translate(13.364197530864203 29.444444444444443)"/><use xlink:href="#b" transform="matrix(1,0,0,1,105,282.6923076923077) translate(66.32716049382717 29.444444444444443)"/><use xlink:href="#c" transform="matrix(1,0,0,1,105,282.6923076923077) translate(78.67283950617285 29.444444444444443)"/><path d="M347.7 277.7h240v60h-240z" stroke="#000" stroke-opacity="0" stroke-width="2" fill="#fff" fill-opacity="0"/><use xlink:href="#d" transform="matrix(1,0,0,1,352.69230769230774,282.6923076923077) translate(68.76543209876543 29.444444444444443)"/><use xlink:href="#h" transform="matrix(1,0,0,1,352.69230769230774,282.6923076923077) translate(120.55555555555556 29.444444444444443)"/><path d="M616.38 160v960" fill="none"/><path d="M616.38 160v10m0 10v20m0 10v20m0 10v20m0 10v20m0 10v20m0 10v20m0 10v20m0 10v20m0 10v20m0 10v20m0 10v20m0 10v20m0 10v20m0 10v20m0 10v20m0 10v20m0 10v20m0 10v20m0 10v20m0 10v20m0 10v20m0 10v20m0 10v20m0 10v20m0 10v20m0 10v20m0 10v20m0 10v20m0 10v20m0 10v20m0 10v20m0 10v10" stroke="#000" stroke-width="2" fill="none"/><path d="M617.38 160.03h-1V159h-1v-3h2zM617.38 1121h-2v-1.03h2z"/><path d="M948.7 162.13V1119" fill="none"/><path d="M948.7 162.13v9.96m0 9.96V202m0 9.96v19.94m0 9.96v19.94m0 9.97v19.93m0 9.97v19.93m0 9.97v19.94m0 9.97v19.94m0 9.98v19.93m0 9.98v19.93m0 9.98v19.94m0 9.96v19.94m0 9.97v19.92m0 9.97v19.92m0 9.97v19.93m0 9.96v19.93m0 9.97v19.93m0 9.97v19.93m0 9.97v19.93m0 9.97v19.94m0 9.96v19.94m0 9.97v19.94m0 9.97v19.94m0 9.97v19.95m0 9.96v19.95m0 9.97v19.93m0 9.97v19.93m0 9.97v19.94m0 9.96v19.94m0 9.97v19.93m0 9.97v19.93m0 9.97v19.94m0 9.96v9.97" stroke="#000" stroke-width="2" fill="none"/><path d="M949.7 162.15h-1V159h-1v-.87h2z"/><path d="M948.7 1118.97v1.03" stroke="#000" stroke-width="2" fill="none"/><path d="M322.5 456.38l957.5-1.2" fill="none"/><path d="M322.5 456.38h9.97m9.98-.02l19.94-.03m9.97 0l19.95-.04m9.97-.02l19.94-.02m9.97-.02l19.96-.02m9.97 0l19.95-.04m9.98 0l19.94-.04m9.98 0l19.95-.03m9.97 0l19.95-.03m9.97-.02l19.95-.02m9.97 0l19.95-.04m9.97-.02l19.94-.03m10 0l19.94-.03m9.97-.02l19.96-.02m9.97-.02l19.95-.02m9.97 0l19.95-.04m9.97 0l19.95-.04m9.98 0l19.94-.03m9.98-.02h19.95m9.97-.02l19.95-.03m9.96 0l19.95-.04m9.98 0l19.95-.03m9.98 0l19.95-.03m9.98-.02l19.95-.02m9.97 0l19.95-.04m9.97 0l19.95-.04m9.97 0l19.94-.04m9.98 0l19.94-.03m9.98-.02l19.95-.02m9.96 0l19.95-.03m9.98 0l19.95-.04m9.97 0l19.95-.04m9.98-.02h9.97" stroke="#000" stroke-width="2" fill="none"/><path d="M319 456.38h3.52v1h-4.02v-2h.5zM1281 456.17h-1.02v-2h1.02z"/><path d="M320 789.06h960" fill="none"/><path d="M320 789.06h10m10 0h20m10 0h20m10 0h20m10 0h20m10 0h20m10 0h20m10 0h20m10 0h20m10 0h20m10 0h20m10 0h20m10 0h20m10 0h20m10 0h20m10 0h20m10 0h20m10 0h20m10 0h20m10 0h20m10 0h20m10 0h20m10 0h20m10 0h20m10 0h20m10 0h20m10 0h20m10 0h20m10 0h20m10 0h20m10 0h20m10 0h20m10 0h10" stroke="#000" stroke-width="2" fill="none"/><path d="M320.03 790.06H319v-2h1.03zM1281 790.06h-1.03v-2h1.03z"/><path d="M1300 492.3h260V1120h-260z" fill="none"/><path d="M1300 1120c21.67 0 39.23-17.56 39.23-39.23v-235.4c0-21.65 17.56-39.22 39.23-39.22-21.67 0-39.23-17.56-39.23-39.23V531.54c0-21.67-17.56-39.23-39.23-39.23" stroke="#000" stroke-width="2" fill="none"/><use xlink:href="#d" transform="matrix(1,0,0,1,1422.6923076922976,497.3076923076924) translate(0 313.44444444444446)"/><use xlink:href="#i" transform="matrix(1,0,0,1,1422.6923076922976,497.3076923076924) translate(51.79012345679013 313.44444444444446)"/><path d="M321 491.3h955.7" fill="none"/><path d="M321 491.3h9.95m9.95 0h19.9m9.97 0h19.9m9.96 0h19.92m9.95 0h19.9m9.97 0h19.9m9.96 0h19.9m9.97 0H540m9.97 0h19.9m9.96 0h19.9m9.97 0h19.9m9.96 0h19.9m9.97 0h19.9m9.97 0h19.9m9.96 0h19.9m9.97 0h19.9m9.96 0h19.9m9.96 0h19.9m9.97 0h19.9m9.96 0h19.9m9.96 0h19.9m9.97 0h19.9m9.96 0H988m9.96 0h19.9m9.96 0h19.9m9.97 0h19.9m9.96 0h19.9m9.96 0h19.9m9.97 0h19.9m9.95 0h19.92m9.95 0h19.9m9.97 0h19.9m9.95 0h9.96" stroke="#000" stroke-width="2" fill="none"/><path d="M321.02 491.3H319v1h-2v-2H321zM1280.7 491.3h-4.02v-1h4.03z"/><path d="M320 823.62h956.7" fill="none"/><path d="M320 823.62h9.97m9.96 0h19.93m9.97 0h19.93m9.97 0h19.93m9.96 0h19.93m9.97 0h19.93m9.97 0h19.93m9.96 0h19.95m9.96 0h19.94m9.97 0h19.94m9.97 0h19.94m9.96 0h19.93m9.97 0h19.93m9.97 0h19.93m9.96 0h19.93m9.96 0h19.92m9.97 0h19.92m9.97 0h19.92m9.96 0h19.93m9.98 0H898m9.98 0h19.93m9.97 0h19.94m9.97 0h19.93m9.97 0h19.93m9.97 0h19.93m9.96 0h19.93m9.96 0h19.93m9.96 0h19.93m9.95 0h19.94m9.95 0h19.93m9.97 0h19.93m9.97 0h19.93m9.96 0h9.97" stroke="#000" stroke-width="2" fill="none"/><path d="M320.03 824.62H319v-2h1.03zM1280.7 823.62h-4.02v-1h4.03z"/><path d="M652.78 160v959" fill="none"/><path d="M652.78 160v10m0 9.98v19.98m0 10v19.97m0 10v19.97m0 10v19.96m0 10v19.97m0 10v19.97m0 10v19.97m0 10v19.97m0 10v19.97m0 10v19.98m0 10v19.97m0 10v19.96m0 10v19.98m0 10v19.97m0 10v19.97m0 10v19.97m0 9.98v19.98m0 10v19.97m0 10v19.97m0 10v19.96m0 10v19.97m0 10v19.97m0 10v19.97m0 10v19.97m0 10v19.97m0 10v19.98m0 10v19.97m0 10v19.96m0 10v19.98m0 10v19.97m0 10V1099m0 10v9.98" stroke="#000" stroke-width="2" fill="none"/><path d="M653.78 160.03h-2V159h2z"/><path d="M652.78 1118.97v1.03" stroke="#000" stroke-width="2" fill="none"/><path d="M983.62 160v959" fill="none"/><path d="M983.62 160v10m0 9.98v19.98m0 10v19.97m0 10v19.97m0 10v19.96m0 10v19.97m0 10v19.97m0 10v19.97m0 10v19.97m0 10v19.97m0 10v19.98m0 10v19.97m0 10v19.96m0 10v19.98m0 10v19.97m0 10v19.97m0 10v19.97m0 9.98v19.98m0 10v19.97m0 10v19.97m0 10v19.96m0 10v19.97m0 10v19.97m0 10v19.97m0 10v19.97m0 10v19.97m0 10v19.98m0 10v19.97m0 10v19.96m0 10v19.98m0 10v19.97m0 10V1099m0 10v9.98" stroke="#000" stroke-width="2" fill="none"/><path d="M984.62 159h-1v1.03h-1V156h2z"/><path d="M983.62 1118.97v1.03M300.5 808.64h-21.77V750h-39.27" stroke="#000" stroke-width="2" fill="none"/><path d="M315.76 808.64l-14.26 4.63V804z" stroke="#000" stroke-width="2"/><path d="M239.5 751h-1.04v-2h1.03z"/><path d="M121.54 720h116.92v60H121.54z" stroke="#000" stroke-opacity="0" stroke-width="2" fill="#fff" fill-opacity="0"/><use xlink:href="#d" transform="matrix(1,0,0,1,126.53846153843915,725) translate(6.03086419753086 29.444444444444443)"/><use xlink:href="#j" transform="matrix(1,0,0,1,126.53846153843915,725) translate(57.82098765432099 29.444444444444443)"/><path d="M1454.9 76.66l-.02.17-.06.24-.07.24-.08.25-.1.25-.1.26-.12.26-.14.28-.16.28-.18.3-.22.3-.24.32-.3.35-.32.36-.38.4-.44.42-.53.45-.62.5-.74.54-.9.6-1.1.68-1.4.75-1.74.87-2.26 1-3 1.2-4.1 1.4-5.84 1.76-8.76 2.23-14.17 2.98-25.9 4.3-62.78 7.68-255.44 25.82-25.88 4.3-14.17 3-8.76 2.23-5.84 1.76-4.1 1.42-1.98.78" stroke="#000" stroke-width="2" fill="none"/><path d="M1455.98 76.7l-2-.03.02-1h2z"/><path d="M991.04 156.9l7.83-12.8 6.03 7.04z" stroke="#000" stroke-width="2"/><path d="M1454.9 76.66v.08l-.06.22-.07.22-.07.22-.1.23-.08.24-.12.24-.13.26-.15.26-.17.28-.2.28-.23.3-.26.32-.3.34-.36.36-.42.4-.5.4-.57.47-.7.5-.83.56-1.04.63-1.3.7-1.63.82-2.13.95-2.82 1.1-3.87 1.35-5.52 1.66-8.3 2.12-13.44 2.82-24.38 4.06-56.25 6.9-312.6 29.68-24.4 4.06-13.43 2.83-8.3 2.13-5.53 1.65-3.87 1.35-.7.27" stroke="#000" stroke-width="2" fill="none"/><path d="M1455.98 76.7l-2-.03.02-1h2z"/><path d="M948.93 156.96l8.15-12.6 5.85 7.2z" stroke="#000" stroke-width="2"/><path d="M1454.96 76.67v.23l-.07.6-.1.6-.12.6-.14.6-.16.6-.2.58-.22.6-.26.62-.3.62-.33.64-.37.65-.43.68-.48.7-.56.7-.62.76-.7.8-.82.82-.94.88-1.08.94-1.27 1-1.5 1.1-1.78 1.18-2.16 1.3-2.66 1.46-3.33 1.65-4.3 1.9-5.73 2.27-8.14 2.83-13.03 3.9-83.37 21.63-8.14 2.82-5.74 2.27-4.3 1.9-3.32 1.64-2.66 1.46-2.16 1.3-1.8 1.2-1.45 1.06" stroke="#000" stroke-width="2" fill="none"/><path d="M1455.98 76.7l-2-.03.02-1h2z"/><path d="M1282.68 156.23l3.42-14.6 7.93 4.8z" stroke="#000" stroke-width="2"/><path d="M1454.98 76.67l-1.52 92.2-2.83 45.97-3.46 33.24-3.82 26-4.03 21.2-4.14 17.72-4.2 15.07-4.22 13-4.22 11.36-4.2 10-4.2 8.9-4.15 7.98-4.16 7.2-4.13 6.5-4.1 5.93-4.12 5.43-4.12 4.98-4.13 4.58-4.15 4.25-4.2 3.93-4.2 3.65-4.3 3.4-4.35 3.16-4.43 2.95-4.53 2.74-4.64 2.54-4.77 2.37-4.9 2.2-5.1 2-5.28 1.85-5.5 1.66-5.77 1.5-6.04 1.28-6.38 1.07-6.75.86-.46.04" stroke="#000" stroke-width="2" fill="none"/><path d="M1455.98 76.7l-2-.02.02-1h2z"/><path d="M1284.23 456.1l14.02-5.34.46 9.26z" stroke="#000" stroke-width="2"/><path d="M1455 76.67l-1.53 134.62-2.8 45.44-3.37 32.42-3.7 25.2-3.9 20.48-4 17.08-4.05 14.54-4.07 12.55-4.07 10.98-4.06 9.7-4.06 8.6-4.04 7.75-4.03 7-4.02 6.34-4.02 5.8-4.03 5.3-4.05 4.9-4.06 4.5-4.1 4.2-4.14 3.88-4.2 3.62-4.25 3.38-4.34 3.15-4.44 2.95-4.54 2.74-4.66 2.56-4.8 2.38-4.98 2.22-5.17 2.04-5.37 1.87-5.62 1.7-5.9 1.52-6.2 1.3-6.6 1.12-7 .88-1.33.1" stroke="#000" stroke-width="2" fill="none"/><path d="M1456 76.7h-2v-1.03h2z"/><path d="M1284.23 492.25l14.03-5.32.45 9.26z" stroke="#000" stroke-width="2"/><path d="M652.3 492.3H1280V1120H652.3z" fill="#99d5ca" fill-opacity=".92"/><path d="M672.23 492.3h19.93m9.96 0h19.93m9.96 0h19.94m9.96 0h19.93m9.96 0h19.92m9.96 0h19.93m9.98 0h19.92m9.97 0h19.92m9.96 0h19.92m9.97 0h19.92m9.97 0h19.92m9.97 0h19.92m9.97 0h19.92m9.97 0h19.93m9.97 0h19.92m9.97 0h19.9m9.98 0h19.92m9.97 0h19.92m9.96 0h19.92m9.97 0h19.92m9.97 0h9.96v9.97m0 9.96v19.93m0 9.96v19.93m0 9.96v19.94m0 9.96v19.93m0 9.96v19.92m0 9.96v19.93m0 9.98v19.92m0 9.97v19.92m0 9.96v19.92m0 9.97v19.92m0 9.97v19.92m0 9.97v19.92m0 9.97v19.92m0 9.97v19.93m0 9.97v19.92m0 9.97v19.9m0 9.98v19.92m0 9.97v19.92m0 9.96v19.92m0 9.97v19.92m0 9.97v9.96h-9.96m-9.97 0h-19.92m-9.97 0h-19.92m-9.97 0h-19.93m-9.97 0h-19.92m-9.97 0h-19.9m-9.98 0h-19.92m-9.97 0h-19.92m-9.96 0h-19.92m-9.97 0h-19.92m-9.97 0h-19.92m-9.97 0h-19.92m-9.97 0h-19.92m-9.97 0h-19.93m-9.97 0h-19.92m-9.97 0H821.7m-9.96 0H791.8m-9.97 0H761.9m-9.96 0H732m-9.95 0h-19.93m-9.96 0h-19.93m-9.96 0h-9.96v-9.96m0-9.97v-19.92m0-9.97v-19.92m0-9.97v-19.93m0-9.97v-19.92m0-9.97v-19.9m0-9.98V930.7m0-9.97V900.8m0-9.96v-19.92m0-9.97v-19.92m0-9.97v-19.92m0-9.97v-19.92m0-9.97v-19.92m0-9.97v-19.93m0-9.97v-19.92m0-9.97V661.7m0-9.96V631.8m0-9.97V601.9m0-9.96V572m0-9.95v-19.93m0-9.96v-19.93m0-9.96v-9.96h9.97" stroke="#000" stroke-width="2" fill="none"/><defs><path d="M67-125c0 53 21 87 73 88 37 1 54-22 65-47l45 17C233-25 199 4 140 4 58 4 20-42 15-125 8-235 124-281 211-232c18 10 29 29 36 50l-46 12c-8-25-30-41-62-41-52 0-71 34-72 86" id="k"/><path d="M110-194c64 0 96 36 96 99 0 64-35 99-97 99-61 0-95-36-95-99 0-62 34-99 96-99zm-1 164c35 0 45-28 45-65 0-40-10-65-43-65-34 0-45 26-45 65 0 36 10 65 43 65" id="l"/><path d="M25 0v-261h50V0H25" id="m"/><path d="M85 4C-2 5 27-109 22-190h50c7 57-23 150 33 157 60-5 35-97 40-157h50l1 190h-47c-2-12 1-28-3-38-12 25-28 42-61 42" id="n"/><path d="M220-157c-53 9-28 100-34 157h-49v-107c1-27-5-49-29-50C55-147 81-57 75 0H25l-1-190h47c2 12-1 28 3 38 10-53 101-56 108 0 13-22 24-43 59-42 82 1 51 116 57 194h-49v-107c-1-25-5-48-29-50" id="o"/><path d="M135-194c87-1 58 113 63 194h-50c-7-57 23-157-34-157-59 0-34 97-39 157H25l-1-190h47c2 12-1 28 3 38 12-26 28-41 61-42" id="p"/><g id="a"><use transform="matrix(0.06172839506172839,0,0,0.06172839506172839,0,0)" xlink:href="#k"/><use transform="matrix(0.06172839506172839,0,0,0.06172839506172839,15.987654320987653,0)" xlink:href="#l"/><use transform="matrix(0.06172839506172839,0,0,0.06172839506172839,29.50617283950617,0)" xlink:href="#m"/><use transform="matrix(0.06172839506172839,0,0,0.06172839506172839,35.67901234567901,0)" xlink:href="#n"/><use transform="matrix(0.06172839506172839,0,0,0.06172839506172839,49.19753086419753,0)" xlink:href="#o"/><use transform="matrix(0.06172839506172839,0,0,0.06172839506172839,68.95061728395062,0)" xlink:href="#p"/></g><path d="M4 7l51-268h42L46 7H4" id="q"/><use transform="matrix(0.06172839506172839,0,0,0.06172839506172839,0,0)" xlink:href="#q" id="b"/><path d="M136-208V0H84v-208H4v-40h212v40h-80" id="r"/><path d="M135-150c-39-12-60 13-60 57V0H25l-1-190h47c2 13-1 29 3 40 6-28 27-53 61-41v41" id="s"/><path d="M133-34C117-15 103 5 69 4 32 3 11-16 11-54c-1-60 55-63 116-61 1-26-3-47-28-47-18 1-26 9-28 27l-52-2c7-38 36-58 82-57s74 22 75 68l1 82c-1 14 12 18 25 15v27c-30 8-71 5-69-32zm-48 3c29 0 43-24 42-57-32 0-66-3-65 30 0 17 8 27 23 27" id="t"/><path d="M190-63c-7 42-38 67-86 67-59 0-84-38-90-98-12-110 154-137 174-36l-49 2c-2-19-15-32-35-32-30 0-35 28-38 64-6 74 65 87 74 30" id="u"/><path d="M147 0L96-86 75-71V0H25v-261h50v150l67-79h53l-66 74L201 0h-54" id="v"/><g id="c"><use transform="matrix(0.06172839506172839,0,0,0.06172839506172839,0,0)" xlink:href="#r"/><use transform="matrix(0.06172839506172839,0,0,0.06172839506172839,12.28395061728395,0)" xlink:href="#s"/><use transform="matrix(0.06172839506172839,0,0,0.06172839506172839,20.925925925925924,0)" xlink:href="#t"/><use transform="matrix(0.06172839506172839,0,0,0.06172839506172839,33.2716049382716,0)" xlink:href="#u"/><use transform="matrix(0.06172839506172839,0,0,0.06172839506172839,45.61728395061728,0)" xlink:href="#v"/></g><path d="M67-125c0 54 23 88 75 88 28 0 53-7 68-21v-34h-60v-39h108v91C232-14 192 4 140 4 58 4 20-42 15-125 8-236 126-280 215-234c19 10 29 26 37 47l-47 15c-11-23-29-39-63-39-53 1-75 33-75 86" id="w"/><path d="M25-224v-37h50v37H25zM25 0v-190h50V0H25" id="x"/><path d="M88-194c31-1 46 15 58 34l-1-101h50l1 261h-48c-2-10 0-23-3-31C134-8 116 4 84 4 32 4 16-41 15-95c0-56 19-97 73-99zm17 164c33 0 40-30 41-66 1-37-9-64-41-64s-38 30-39 65c0 43 13 65 39 65" id="y"/><g id="d"><use transform="matrix(0.06172839506172839,0,0,0.06172839506172839,0,0)" xlink:href="#w"/><use transform="matrix(0.06172839506172839,0,0,0.06172839506172839,17.28395061728395,0)" xlink:href="#s"/><use transform="matrix(0.06172839506172839,0,0,0.06172839506172839,25.925925925925924,0)" xlink:href="#x"/><use transform="matrix(0.06172839506172839,0,0,0.06172839506172839,32.098765432098766,0)" xlink:href="#y"/></g><path d="M115-3C79 11 28 4 28-45v-112H4v-33h27l15-45h31v45h36v33H77v99c-1 23 16 31 38 25v30" id="z"/><path d="M185-48c-13 30-37 53-82 52C43 2 14-33 14-96s30-98 90-98c62 0 83 45 84 108H66c0 31 8 55 39 56 18 0 30-7 34-22zm-45-69c5-46-57-63-70-21-2 6-4 13-4 21h74" id="A"/><g id="e"><use transform="matrix(0.06172839506172839,0,0,0.06172839506172839,0,0)" xlink:href="#k"/><use transform="matrix(0.06172839506172839,0,0,0.06172839506172839,15.987654320987653,0)" xlink:href="#l"/><use transform="matrix(0.06172839506172839,0,0,0.06172839506172839,29.50617283950617,0)" xlink:href="#p"/><use transform="matrix(0.06172839506172839,0,0,0.06172839506172839,43.02469135802469,0)" xlink:href="#z"/><use transform="matrix(0.06172839506172839,0,0,0.06172839506172839,50.37037037037037,0)" xlink:href="#t"/><use transform="matrix(0.06172839506172839,0,0,0.06172839506172839,62.716049382716044,0)" xlink:href="#x"/><use transform="matrix(0.06172839506172839,0,0,0.06172839506172839,68.88888888888889,0)" xlink:href="#p"/><use transform="matrix(0.06172839506172839,0,0,0.06172839506172839,82.4074074074074,0)" xlink:href="#A"/><use transform="matrix(0.06172839506172839,0,0,0.06172839506172839,94.75308641975309,0)" xlink:href="#s"/></g><path d="M24 0v-248h52v208h133V0H24" id="B"/><path d="M137-138c1-29-70-34-71-4 15 46 118 7 119 86 1 83-164 76-172 9l43-7c4 19 20 25 44 25 33 8 57-30 24-41C81-84 22-81 20-136c-2-80 154-74 161-7" id="C"/><g id="f"><use transform="matrix(0.06172839506172839,0,0,0.06172839506172839,0,0)" xlink:href="#B"/><use transform="matrix(0.06172839506172839,0,0,0.06172839506172839,13.518518518518517,0)" xlink:href="#x"/><use transform="matrix(0.06172839506172839,0,0,0.06172839506172839,19.691358024691358,0)" xlink:href="#p"/><use transform="matrix(0.06172839506172839,0,0,0.06172839506172839,33.20987654320987,0)" xlink:href="#A"/><use transform="matrix(0.06172839506172839,0,0,0.06172839506172839,45.55555555555555,0)" xlink:href="#C"/></g><path d="M240-174c0 40-23 61-54 70L253 0h-59l-57-94H76V0H24v-248c93 4 217-23 216 74zM76-134c48-2 112 12 112-38 0-48-66-32-112-35v73" id="D"/><path d="M231 0h-52l-39-155L100 0H48L-1-190h46L77-45c9-52 24-97 36-145h53l37 145 32-145h46" id="E"/><g id="g"><use transform="matrix(0.06172839506172839,0,0,0.06172839506172839,0,0)" xlink:href="#D"/><use transform="matrix(0.06172839506172839,0,0,0.06172839506172839,15.987654320987653,0)" xlink:href="#l"/><use transform="matrix(0.06172839506172839,0,0,0.06172839506172839,29.50617283950617,0)" xlink:href="#E"/></g><g id="h"><use transform="matrix(0.06172839506172839,0,0,0.06172839506172839,0,0)" xlink:href="#k"/><use transform="matrix(0.06172839506172839,0,0,0.06172839506172839,15.987654320987653,0)" xlink:href="#A"/><use transform="matrix(0.06172839506172839,0,0,0.06172839506172839,28.333333333333332,0)" xlink:href="#m"/><use transform="matrix(0.06172839506172839,0,0,0.06172839506172839,34.50617283950617,0)" xlink:href="#m"/></g><path d="M199 0l-22-63H83L61 0H9l90-248h61L250 0h-51zm-33-102l-36-108c-10 38-24 72-36 108h72" id="F"/><g id="i"><use transform="matrix(0.06172839506172839,0,0,0.06172839506172839,0,0)" xlink:href="#F"/><use transform="matrix(0.06172839506172839,0,0,0.06172839506172839,15.987654320987653,0)" xlink:href="#s"/><use transform="matrix(0.06172839506172839,0,0,0.06172839506172839,24.629629629629626,0)" xlink:href="#A"/><use transform="matrix(0.06172839506172839,0,0,0.06172839506172839,36.9753086419753,0)" xlink:href="#t"/></g><path d="M135-194c53 0 70 44 70 98 0 56-19 98-73 100-31 1-45-17-59-34 3 33 2 69 2 105H25l-1-265h48c2 10 0 23 3 31 11-24 29-35 60-35zM114-30c33 0 39-31 40-66 0-38-9-64-40-64-56 0-55 130 0 130" id="G"/><g id="j"><use transform="matrix(0.06172839506172839,0,0,0.06172839506172839,0,0)" xlink:href="#w"/><use transform="matrix(0.06172839506172839,0,0,0.06172839506172839,17.28395061728395,0)" xlink:href="#t"/><use transform="matrix(0.06172839506172839,0,0,0.06172839506172839,29.629629629629626,0)" xlink:href="#G"/></g></defs></g></svg>