<?xml version="1.0" encoding="UTF-8" standalone="no"?>
<!DOCTYPE svg PUBLIC "-//W3C//DTD SVG 1.1//EN"
 "http://www.w3.org/Graphics/SVG/1.1/DTD/svg11.dtd">
<!-- Generated by graphviz version 2.40.1 (20161225.0304)
 -->
<!-- Title: %3 Pages: 1 -->
<svg width="236pt" height="208pt"
 viewBox="0.00 0.00 235.50 208.38" xmlns="http://www.w3.org/2000/svg" xmlns:xlink="http://www.w3.org/1999/xlink">
<g id="graph0" class="graph" transform="scale(1 1) rotate(0) translate(4 204.375)">
<title>%3</title>
<polygon fill="#ffffff" stroke="transparent" points="-4,4 -4,-204.375 231.5015,-204.375 231.5015,4 -4,4"/>
<!-- presentation -->
<g id="node1" class="node">
<title>presentation</title>
<polygon fill="none" stroke="#000000" points="0,-102.3906 0,-199.875 125.5732,-199.875 125.5732,-102.3906 0,-102.3906"/>
<text text-anchor="middle" x="62.7866" y="-184.675" font-family="menlo" font-size="14.00" fill="#000000">presentations</text>
<polyline fill="none" stroke="#000000" points="0,-175.5781 125.5732,-175.5781 "/>
<text text-anchor="middle" x="62.7866" y="-160.3781" font-family="menlo" font-size="14.00" fill="#000000">id</text>
<text text-anchor="middle" x="62.7866" y="-144.0813" font-family="menlo" font-size="14.00" fill="#000000">name</text>
<text text-anchor="middle" x="62.7866" y="-127.7844" font-family="menlo" font-size="14.00" fill="#000000">location</text>
<text text-anchor="middle" x="62.7866" y="-111.4875" font-family="menlo" font-size="14.00" fill="#000000">time</text>
</g>
<!-- atendee -->
<g id="node2" class="node">
<title>atendee</title>
<polygon fill="none" stroke="#000000" points="144.0718,-118.6875 144.0718,-183.5781 227.5015,-183.5781 227.5015,-118.6875 144.0718,-118.6875"/>
<text text-anchor="middle" x="185.7866" y="-168.3781" font-family="menlo" font-size="14.00" fill="#000000">atendees</text>
<polyline fill="none" stroke="#000000" points="144.0718,-159.2813 227.5015,-159.2813 "/>
<text text-anchor="middle" x="185.7866" y="-144.0813" font-family="menlo" font-size="14.00" fill="#000000">id</text>
<text text-anchor="middle" x="185.7866" y="-127.7844" font-family="menlo" font-size="14.00" fill="#000000">name</text>
</g>
<!-- atendee_presentation -->
<g id="node3" class="node">
<title>atendee_presentation</title>
<polygon fill="none" stroke="#000000" points="31.4995,-.5 31.4995,-65.3906 216.0737,-65.3906 216.0737,-.5 31.4995,-.5"/>
<text text-anchor="middle" x="123.7866" y="-50.1906" font-family="menlo" font-size="14.00" fill="#000000">atendee_presentation</text>
<polyline fill="none" stroke="#000000" points="31.4995,-41.0938 216.0737,-41.0938 "/>
<text text-anchor="middle" x="123.7866" y="-25.8938" font-family="menlo" font-size="14.00" fill="#000000">atendee_id</text>
<text text-anchor="middle" x="123.7866" y="-9.5969" font-family="menlo" font-size="14.00" fill="#000000">presentation_id</text>
</g>
<!-- atendee_presentation&#45;&gt;presentation -->
<g id="edge1" class="edge">
<title>atendee_presentation&#45;&gt;presentation</title>
<path fill="none" stroke="#000000" d="M106.9566,-65.5534C102.5204,-74.1486 97.5977,-83.6863 92.6954,-93.1846"/>
<polygon fill="#000000" stroke="#000000" points="89.4943,-91.7555 88.018,-102.247 95.7147,-94.966 89.4943,-91.7555"/>
</g>
<!-- atendee_presentation&#45;&gt;atendee -->
<g id="edge2" class="edge">
<title>atendee_presentation&#45;&gt;atendee</title>
<path fill="none" stroke="#000000" d="M140.8925,-65.5534C148.0079,-79.1172 156.3547,-95.0281 163.9082,-109.4271"/>
<polygon fill="#000000" stroke="#000000" points="160.9916,-111.4016 168.7366,-118.6311 167.1904,-108.1497 160.9916,-111.4016"/>
</g>
</g>
</svg>
