<?xml version="1.0" encoding="UTF-8" standalone="no"?>
<!DOCTYPE svg PUBLIC "-//W3C//DTD SVG 1.1//EN"
 "http://www.w3.org/Graphics/SVG/1.1/DTD/svg11.dtd">
<!-- Generated by graphviz version 2.40.1 (20161225.0304)
 -->
<!-- Title: %3 Pages: 1 -->
<svg width="188pt" height="310pt"
 viewBox="0.00 0.00 188.43 310.27" xmlns="http://www.w3.org/2000/svg" xmlns:xlink="http://www.w3.org/1999/xlink">
<g id="graph0" class="graph" transform="scale(1 1) rotate(0) translate(4 306.2656)">
<title>%3</title>
<polygon fill="#ffffff" stroke="transparent" points="-4,4 -4,-306.2656 184.4297,-306.2656 184.4297,4 -4,4"/>
<!-- author -->
<g id="node1" class="node">
<title>author</title>
<polygon fill="none" stroke="#000000" points="0,-220.5781 0,-301.7656 100.2871,-301.7656 100.2871,-220.5781 0,-220.5781"/>
<text text-anchor="middle" x="50.1436" y="-286.5656" font-family="menlo" font-size="14.00" fill="#000000">authors</text>
<polyline fill="none" stroke="#000000" points="0,-277.4688 100.2871,-277.4688 "/>
<text text-anchor="middle" x="50.1436" y="-262.2688" font-family="menlo" font-size="14.00" fill="#000000">id</text>
<text text-anchor="middle" x="50.1436" y="-245.9719" font-family="menlo" font-size="14.00" fill="#000000">first_name</text>
<text text-anchor="middle" x="50.1436" y="-229.675" font-family="menlo" font-size="14.00" fill="#000000">last_name</text>
</g>
<!-- quote -->
<g id="node2" class="node">
<title>quote</title>
<polygon fill="none" stroke="#000000" points="4.2144,-102.3906 4.2144,-183.5781 96.0728,-183.5781 96.0728,-102.3906 4.2144,-102.3906"/>
<text text-anchor="middle" x="50.1436" y="-168.3781" font-family="menlo" font-size="14.00" fill="#000000">quotes</text>
<polyline fill="none" stroke="#000000" points="4.2144,-159.2813 96.0728,-159.2813 "/>
<text text-anchor="middle" x="50.1436" y="-144.0813" font-family="menlo" font-size="14.00" fill="#000000">id</text>
<text text-anchor="middle" x="50.1436" y="-127.7844" font-family="menlo" font-size="14.00" fill="#000000">author_id</text>
<text text-anchor="middle" x="50.1436" y="-111.4875" font-family="menlo" font-size="14.00" fill="#000000">content</text>
</g>
<!-- quote&#45;&gt;author -->
<g id="edge1" class="edge">
<title>quote&#45;&gt;author</title>
<path fill="none" stroke="#000000" d="M50.1436,-183.6578C50.1436,-192.2005 50.1436,-201.3138 50.1436,-210.1792"/>
<polygon fill="#000000" stroke="#000000" points="46.6437,-210.4234 50.1436,-220.4235 53.6437,-210.4235 46.6437,-210.4234"/>
</g>
<!-- topic -->
<g id="node3" class="node">
<title>topic</title>
<polygon fill="none" stroke="#000000" points="113.8574,-110.5391 113.8574,-175.4297 180.4297,-175.4297 180.4297,-110.5391 113.8574,-110.5391"/>
<text text-anchor="middle" x="147.1436" y="-160.2297" font-family="menlo" font-size="14.00" fill="#000000">topics</text>
<polyline fill="none" stroke="#000000" points="113.8574,-151.1328 180.4297,-151.1328 "/>
<text text-anchor="middle" x="147.1436" y="-135.9328" font-family="menlo" font-size="14.00" fill="#000000">id</text>
<text text-anchor="middle" x="147.1436" y="-119.6359" font-family="menlo" font-size="14.00" fill="#000000">name</text>
</g>
<!-- quote_topic -->
<g id="node4" class="node">
<title>quote_topic</title>
<polygon fill="none" stroke="#000000" points="43.7856,-.5 43.7856,-65.3906 152.5015,-65.3906 152.5015,-.5 43.7856,-.5"/>
<text text-anchor="middle" x="98.1436" y="-50.1906" font-family="menlo" font-size="14.00" fill="#000000">quote_topic</text>
<polyline fill="none" stroke="#000000" points="43.7856,-41.0938 152.5015,-41.0938 "/>
<text text-anchor="middle" x="98.1436" y="-25.8938" font-family="menlo" font-size="14.00" fill="#000000">quote_id</text>
<text text-anchor="middle" x="98.1436" y="-9.5969" font-family="menlo" font-size="14.00" fill="#000000">topic_id</text>
</g>
<!-- quote_topic&#45;&gt;quote -->
<g id="edge2" class="edge">
<title>quote_topic&#45;&gt;quote</title>
<path fill="none" stroke="#000000" d="M83.8719,-65.6627C80.1801,-74.1262 76.1185,-83.4373 72.1315,-92.5773"/>
<polygon fill="#000000" stroke="#000000" points="68.8126,-91.4323 68.0223,-101.9977 75.2287,-94.2312 68.8126,-91.4323"/>
</g>
<!-- quote_topic&#45;&gt;topic -->
<g id="edge3" class="edge">
<title>quote_topic&#45;&gt;topic</title>
<path fill="none" stroke="#000000" d="M112.7125,-65.6627C117.6542,-76.7603 123.2448,-89.3151 128.4618,-101.0309"/>
<polygon fill="#000000" stroke="#000000" points="125.2809,-102.4916 132.5461,-110.203 131.6755,-99.644 125.2809,-102.4916"/>
</g>
</g>
</svg>
